<mxfile modified="2020-01-05T10:23:37.352Z" host="www.draw.io" agent="Mozilla/5.0 (Windows NT 10.0; WOW64) AppleWebKit/537.36 (KHTML, like Gecko) Chrome/79.0.3945.88 Safari/537.36" etag="Sm3BsuLZcrz5tmplbU8H" version="12.4.8" type="github">
  <diagram id="Ht1M8jgEwFfnCIfOTk4-" name="Page-1">
    <mxGraphModel dx="1563" dy="623" grid="1" gridSize="10" guides="1" tooltips="1" connect="1" arrows="1" fold="1" page="1" pageScale="1" pageWidth="827" pageHeight="1169" math="0" shadow="0">
      <root>
        <mxCell id="0"/>
        <mxCell id="1" parent="0"/>
        <mxCell id="2K9lKY6o_eluK2soD-sr-3" value="&lt;span style=&quot;font-size: 14px&quot;&gt;&lt;b&gt;Table API&lt;/b&gt;&lt;/span&gt;" style="rounded=1;whiteSpace=wrap;html=1;fillColor=#FFCC99;strokeColor=#825B34;" vertex="1" parent="1">
          <mxGeometry x="180" y="280" width="480" height="70" as="geometry"/>
        </mxCell>
        <mxCell id="2K9lKY6o_eluK2soD-sr-4" value="&lt;b&gt;&lt;font style=&quot;font-size: 14px&quot;&gt;DataSet API&lt;/font&gt;&lt;/b&gt;" style="rounded=1;whiteSpace=wrap;html=1;fillColor=#CC99FF;strokeColor=#6600CC;" vertex="1" parent="1">
          <mxGeometry x="180" y="370" width="230" height="70" as="geometry"/>
        </mxCell>
        <mxCell id="2K9lKY6o_eluK2soD-sr-6" value="&lt;b&gt;&lt;font style=&quot;font-size: 14px&quot;&gt;DataStream API&lt;/font&gt;&lt;/b&gt;" style="rounded=1;whiteSpace=wrap;html=1;fillColor=#FFFF99;strokeColor=#CCCC00;" vertex="1" parent="1">
          <mxGeometry x="430" y="370" width="230" height="70" as="geometry"/>
        </mxCell>
        <mxCell id="2K9lKY6o_eluK2soD-sr-7" value="&lt;b&gt;&lt;font style=&quot;font-size: 14px&quot;&gt;SQL&lt;/font&gt;&lt;/b&gt;" style="rounded=1;whiteSpace=wrap;html=1;fillColor=#FFCC99;strokeColor=#73502E;" vertex="1" parent="1">
          <mxGeometry x="305" y="190" width="230" height="70" as="geometry"/>
        </mxCell>
        <mxCell id="2K9lKY6o_eluK2soD-sr-8" value="&lt;span style=&quot;font-size: 14px&quot;&gt;&lt;b&gt;Flink Dataflow Runtime&lt;/b&gt;&lt;/span&gt;" style="rounded=1;whiteSpace=wrap;html=1;fillColor=#9999FF;strokeColor=#0000CC;" vertex="1" parent="1">
          <mxGeometry x="180" y="460" width="480" height="70" as="geometry"/>
        </mxCell>
      </root>
    </mxGraphModel>
  </diagram>
</mxfile>
